<svg xmlns="http://www.w3.org/2000/svg" xmlns:xlink="http://www.w3.org/1999/xlink" width="350" viewBox="0 0 262.5 262.500001" height="350" preserveAspectRatio="xMidYMid meet"><defs><clipPath id="id1"><path d="M 0 0 L 262 0 L 262 262 L 0 262 Z M 0 0 " clip-rule="nonzero"></path></clipPath><clipPath id="id2"><path d="M 66 54.183594 L 197 54.183594 L 197 147 L 66 147 Z M 66 54.183594 " clip-rule="nonzero"></path></clipPath><clipPath id="id3"><path d="M 54.183594 147 L 208.683594 147 L 208.683594 208.683594 L 54.183594 208.683594 Z M 54.183594 147 " clip-rule="nonzero"></path></clipPath></defs><g clip-path="url(#id1)"><path fill="#1a3656" d="M 131.25 0 C 58.761719 0 0 58.761719 0 131.25 C 0 203.738281 58.761719 262.5 131.25 262.5 C 203.738281 262.5 262.5 203.738281 262.5 131.25 C 262.5 58.761719 203.738281 0 131.25 0 " fill-opacity="1" fill-rule="nonzero"></path></g><path fill="#ffffff" d="M 133.847656 143.503906 C 133.847656 143.824219 133.789062 144.132812 133.664062 144.429688 C 133.542969 144.726562 133.367188 144.988281 133.140625 145.210938 C 132.917969 145.4375 132.65625 145.613281 132.359375 145.734375 C 132.0625 145.859375 131.753906 145.917969 131.433594 145.917969 C 131.117188 145.917969 130.808594 145.859375 130.511719 145.734375 C 130.214844 145.613281 129.953125 145.4375 129.726562 145.210938 C 129.503906 144.988281 129.328125 144.726562 129.207031 144.429688 C 129.082031 144.132812 129.019531 143.824219 129.019531 143.503906 C 129.019531 143.1875 129.082031 142.878906 129.207031 142.582031 C 129.328125 142.285156 129.503906 142.023438 129.726562 141.796875 C 129.953125 141.574219 130.214844 141.398438 130.511719 141.277344 C 130.808594 141.152344 131.117188 141.089844 131.433594 141.089844 C 131.753906 141.089844 132.0625 141.152344 132.359375 141.277344 C 132.65625 141.398438 132.917969 141.574219 133.140625 141.796875 C 133.367188 142.023438 133.542969 142.285156 133.664062 142.582031 C 133.789062 142.878906 133.847656 143.1875 133.847656 143.503906 Z M 133.847656 143.503906 " fill-opacity="1" fill-rule="nonzero"></path><g clip-path="url(#id2)"><path fill="#ffffff" d="M 71.082031 110.796875 L 71.082031 61.546875 C 71.082031 60.101562 72.171875 59.011719 73.496094 59.011719 L 189.371094 59.011719 C 190.699219 59.011719 191.785156 60.101562 191.785156 61.546875 L 191.785156 138.675781 C 191.785156 140.003906 190.699219 141.210938 189.371094 141.210938 L 141.089844 141.210938 C 139.765625 141.210938 138.675781 142.296875 138.675781 143.625 C 138.675781 144.953125 139.765625 146.039062 141.089844 146.039062 L 189.371094 146.039062 C 193.355469 146.039062 196.613281 142.78125 196.613281 138.675781 L 196.613281 61.546875 C 196.613281 57.566406 193.355469 54.183594 189.371094 54.183594 L 73.496094 54.183594 C 69.515625 54.183594 66.253906 57.445312 66.253906 61.546875 L 66.253906 116.589844 C 67.582031 114.417969 69.273438 112.484375 71.082031 110.796875 Z M 71.082031 110.796875 " fill-opacity="1" fill-rule="nonzero"></path></g><g clip-path="url(#id3)"><path fill="#ffffff" d="M 193.355469 178.269531 C 195.40625 176.09375 196.613281 173.199219 196.613281 170.058594 C 196.613281 163.421875 191.183594 157.988281 184.542969 157.988281 C 177.90625 157.988281 172.472656 163.300781 172.472656 169.941406 C 170.785156 168.851562 168.851562 168.007812 166.800781 167.40625 C 168.851562 165.230469 170.058594 162.335938 170.058594 159.195312 C 170.058594 152.558594 164.628906 147.125 157.988281 147.125 C 151.351562 147.125 145.917969 152.558594 145.917969 159.195312 C 145.917969 162.335938 147.125 165.230469 149.179688 167.40625 C 147.125 168.007812 145.195312 168.851562 143.503906 169.941406 C 143.503906 163.300781 138.074219 157.988281 131.433594 157.988281 C 124.796875 157.988281 119.363281 163.300781 119.363281 169.941406 C 117.675781 168.851562 115.742188 168.007812 113.691406 167.40625 C 115.742188 165.230469 116.949219 162.335938 116.949219 159.195312 C 116.949219 152.558594 111.519531 147.125 104.878906 147.125 C 98.242188 147.125 92.808594 152.558594 92.808594 159.195312 C 92.808594 162.335938 94.015625 165.230469 96.070312 167.40625 C 94.015625 168.007812 92.085938 168.851562 90.394531 169.941406 C 90.394531 163.300781 84.964844 157.988281 78.324219 157.988281 C 71.6875 157.988281 66.253906 163.421875 66.253906 170.058594 C 66.253906 173.199219 67.460938 176.09375 69.515625 178.269531 C 60.582031 180.921875 54.183594 188.648438 54.183594 197.703125 L 54.183594 206.269531 C 54.183594 207.597656 55.273438 208.683594 56.597656 208.683594 C 57.925781 208.683594 59.011719 207.597656 59.011719 206.269531 L 59.011719 197.703125 C 59.011719 189.132812 66.738281 182.128906 76.152344 182.128906 L 80.378906 182.128906 C 89.914062 182.128906 97.519531 189.132812 97.519531 197.703125 L 97.519531 206.269531 C 97.519531 207.597656 98.605469 208.683594 99.933594 208.683594 C 101.257812 208.683594 102.347656 207.597656 102.347656 206.269531 L 102.347656 197.703125 C 102.347656 189.011719 96.429688 181.527344 88.101562 178.628906 C 91.121094 174.164062 96.550781 171.265625 102.707031 171.265625 L 106.933594 171.265625 C 113.089844 171.265625 118.519531 174.164062 121.539062 178.628906 C 113.210938 181.527344 107.292969 189.011719 107.292969 197.703125 L 107.292969 206.269531 C 107.292969 207.597656 108.382812 208.683594 109.707031 208.683594 C 111.035156 208.683594 112.121094 207.597656 112.121094 206.269531 L 112.121094 197.703125 C 112.121094 189.132812 119.847656 182.128906 129.261719 182.128906 L 133.488281 182.128906 C 143.023438 182.128906 150.628906 189.132812 150.628906 197.703125 L 150.628906 206.269531 C 150.628906 207.597656 151.714844 208.683594 153.042969 208.683594 C 154.367188 208.683594 155.457031 207.597656 155.457031 206.269531 L 155.457031 197.703125 C 155.457031 189.011719 149.539062 181.527344 141.210938 178.628906 C 144.230469 174.164062 149.660156 171.265625 155.816406 171.265625 L 160.042969 171.265625 C 166.199219 171.265625 171.628906 174.164062 174.648438 178.628906 C 166.320312 181.527344 160.402344 189.011719 160.402344 197.703125 L 160.402344 206.269531 C 160.402344 207.597656 161.492188 208.683594 162.816406 208.683594 C 164.144531 208.683594 165.230469 207.597656 165.230469 206.269531 L 165.230469 197.703125 C 165.230469 189.132812 172.957031 182.128906 182.371094 182.128906 L 186.597656 182.128906 C 196.132812 182.128906 203.738281 189.132812 203.738281 197.703125 L 203.738281 206.269531 C 203.738281 207.597656 204.824219 208.683594 206.152344 208.683594 C 207.476562 208.683594 208.566406 207.597656 208.566406 206.269531 L 208.566406 197.703125 C 208.683594 188.648438 202.289062 180.921875 193.355469 178.269531 Z M 184.542969 162.816406 C 188.527344 162.816406 191.785156 166.078125 191.785156 170.058594 C 191.785156 174.042969 188.527344 177.300781 184.542969 177.300781 C 180.5625 177.300781 177.300781 174.042969 177.300781 170.058594 C 177.300781 166.078125 180.5625 162.816406 184.542969 162.816406 Z M 157.988281 151.953125 C 161.972656 151.953125 165.230469 155.214844 165.230469 159.195312 C 165.230469 163.179688 161.972656 166.4375 157.988281 166.4375 C 154.007812 166.4375 150.746094 163.179688 150.746094 159.195312 C 150.746094 155.214844 154.007812 151.953125 157.988281 151.953125 Z M 131.433594 162.816406 C 135.417969 162.816406 138.675781 166.078125 138.675781 170.058594 C 138.675781 174.042969 135.417969 177.300781 131.433594 177.300781 C 127.453125 177.300781 124.191406 174.042969 124.191406 170.058594 C 124.191406 166.078125 127.453125 162.816406 131.433594 162.816406 Z M 104.878906 151.953125 C 108.863281 151.953125 112.121094 155.214844 112.121094 159.195312 C 112.121094 163.179688 108.863281 166.4375 104.878906 166.4375 C 100.898438 166.4375 97.636719 163.179688 97.636719 159.195312 C 97.636719 155.214844 100.898438 151.953125 104.878906 151.953125 Z M 78.324219 162.816406 C 82.308594 162.816406 85.566406 166.078125 85.566406 170.058594 C 85.566406 174.042969 82.308594 177.300781 78.324219 177.300781 C 74.34375 177.300781 71.082031 174.042969 71.082031 170.058594 C 71.082031 166.078125 74.34375 162.816406 78.324219 162.816406 Z M 78.324219 162.816406 " fill-opacity="1" fill-rule="nonzero"></path></g><path fill="#ffffff" d="M 121.777344 145.917969 C 123.105469 145.917969 124.191406 144.832031 124.191406 143.503906 L 124.191406 132.640625 C 124.191406 122.503906 117.917969 113.691406 108.742188 109.707031 C 107.535156 111.15625 106.085938 112.242188 104.519531 113.210938 C 113.089844 115.863281 119.363281 123.46875 119.363281 132.640625 L 119.363281 143.503906 C 119.363281 144.832031 120.453125 145.917969 121.777344 145.917969 Z M 121.777344 145.917969 " fill-opacity="1" fill-rule="nonzero"></path><path fill="#ffffff" d="M 68.667969 145.917969 C 69.996094 145.917969 71.082031 144.832031 71.082031 143.503906 L 71.082031 132.640625 C 71.082031 123.589844 77.359375 115.863281 85.929688 113.210938 C 84.359375 112.242188 82.914062 111.035156 81.707031 109.707031 C 72.53125 113.570312 66.253906 122.382812 66.253906 132.640625 L 66.253906 143.503906 C 66.253906 144.832031 67.34375 145.917969 68.667969 145.917969 Z M 68.667969 145.917969 " fill-opacity="1" fill-rule="nonzero"></path><path fill="#ffffff" d="M 95.222656 84.359375 C 87.863281 84.359375 81.945312 90.277344 81.945312 97.636719 C 81.945312 105 87.863281 110.914062 95.222656 110.914062 C 102.585938 110.914062 108.5 105 108.5 97.636719 C 108.5 90.277344 102.585938 84.359375 95.222656 84.359375 Z M 95.222656 106.085938 C 90.515625 106.085938 86.773438 102.347656 86.773438 97.636719 C 86.773438 92.929688 90.515625 89.1875 95.222656 89.1875 C 99.933594 89.1875 103.671875 92.929688 103.671875 97.636719 C 103.671875 102.347656 99.933594 106.085938 95.222656 106.085938 Z M 95.222656 106.085938 " fill-opacity="1" fill-rule="nonzero"></path><path fill="#ffffff" d="M 143.746094 106.570312 L 156.179688 90.636719 L 164.023438 94.863281 C 164.992188 95.34375 166.199219 95.222656 167.042969 94.257812 L 178.628906 80.859375 L 178.628906 81.464844 C 178.628906 82.792969 179.714844 83.878906 181.042969 83.878906 C 182.371094 83.878906 183.457031 82.792969 183.457031 81.464844 L 183.335938 73.496094 C 183.335938 72.773438 182.976562 72.050781 182.371094 71.566406 C 181.769531 71.082031 180.921875 70.964844 180.199219 71.203125 L 172.355469 73.738281 C 171.027344 74.101562 170.421875 75.550781 170.785156 76.757812 C 171.148438 78.085938 172.59375 78.6875 173.800781 78.324219 L 174.769531 78.085938 L 164.75 89.671875 L 156.78125 85.449219 C 155.695312 84.84375 154.488281 85.207031 153.765625 86.050781 L 141.210938 101.863281 L 133.125 97.277344 C 132.160156 96.792969 130.953125 96.914062 130.226562 97.636719 L 122.503906 105.484375 C 121.539062 106.449219 121.539062 108.019531 122.503906 108.863281 C 122.984375 109.46875 123.589844 109.707031 124.191406 109.707031 C 124.796875 109.707031 125.398438 109.46875 125.882812 108.984375 L 132.28125 102.464844 L 140.609375 107.175781 C 141.695312 107.777344 143.023438 107.414062 143.746094 106.570312 Z M 143.746094 106.570312 " fill-opacity="1" fill-rule="nonzero"></path><path fill="#ffffff" d="M 182.128906 114.535156 C 182.128906 113.210938 181.042969 112.121094 179.714844 112.121094 L 145.917969 112.121094 C 144.59375 112.121094 143.503906 113.210938 143.503906 114.535156 C 143.503906 115.863281 144.59375 116.949219 145.917969 116.949219 L 179.714844 116.949219 C 181.042969 116.949219 182.128906 115.863281 182.128906 114.535156 Z M 182.128906 114.535156 " fill-opacity="1" fill-rule="nonzero"></path><path fill="#ffffff" d="M 145.917969 121.777344 C 144.59375 121.777344 143.503906 122.867188 143.503906 124.191406 C 143.503906 125.519531 144.59375 126.605469 145.917969 126.605469 L 165.59375 126.605469 C 166.921875 126.605469 168.007812 125.519531 168.007812 124.191406 C 168.007812 122.867188 166.921875 121.777344 165.59375 121.777344 Z M 145.917969 121.777344 " fill-opacity="1" fill-rule="nonzero"></path></svg>